M48
;DRILL file {Pcbnew (2012-jan-04)-stable} date So 12 Feb 2012 21:11:50 CET
;FORMAT={-:-/ absolute / metric / decimal}
FMAT,2
METRIC,TZ
T1C0.635
T2C0.813
T3C0.851
T4C1.016
%
G90
G05
M71
T1
X65.634Y48.311
X67.488Y48.311
X69.317Y48.362
X82.017Y48.311
X97.790Y70.688
X97.790Y72.771
T2
X56.185Y60.858
X61.265Y60.858
X86.385Y73.050
X91.465Y73.050
X92.415Y76.205
X97.272Y74.722
T3
X43.688Y63.525
X46.025Y63.932
X47.092Y61.874
X48.209Y66.345
X50.114Y66.472
X55.804Y62.941
X56.439Y51.867
X59.233Y57.074
X60.681Y51.537
X62.814Y63.373
X62.865Y72.415
X63.195Y70.383
X63.906Y67.361
X64.618Y68.834
X65.430Y66.396
X65.710Y49.708
X66.269Y60.782
X66.472Y55.397
X66.497Y52.603
X67.056Y53.391
X69.621Y63.805
X69.672Y64.999
X70.866Y64.135
X72.339Y64.135
X74.778Y55.372
X75.489Y75.921
X77.038Y48.412
X77.038Y67.488
X78.638Y48.285
X79.070Y72.847
X79.146Y57.556
X79.273Y67.386
X79.477Y69.926
X79.731Y75.133
X81.051Y59.233
X82.042Y70.764
X82.093Y75.387
X82.220Y57.633
X85.014Y51.892
X86.233Y54.585
X87.351Y66.802
X88.290Y53.619
X89.179Y55.143
X89.306Y64.211
X89.408Y73.127
X92.761Y70.307
X93.320Y61.646
X94.107Y73.812
X94.488Y63.246
T4
X44.018Y70.714
X44.018Y76.276
X44.044Y73.533
X44.247Y48.641
X44.247Y51.181
X57.328Y76.479
X58.191Y67.031
X58.191Y72.111
X59.385Y76.479
X61.697Y74.244
X61.697Y76.479
X71.552Y48.387
X74.092Y48.387
X85.141Y48.412
X87.681Y48.412
X90.221Y48.412
X92.761Y48.412
X95.301Y48.412
X97.841Y48.412
X97.841Y50.952
X97.841Y53.823
X97.892Y57.125
X97.892Y59.665
T0
M30
